<?xml version="1.0" standalone="no"?>
<!DOCTYPE svg PUBLIC "-//W3C//DTD SVG 20010904//EN"
 "http://www.w3.org/TR/2001/REC-SVG-20010904/DTD/svg10.dtd">
<svg version="1.0" xmlns="http://www.w3.org/2000/svg"
 width="360.000000pt" height="360.000000pt" viewBox="0 0 360.000000 360.000000"
 preserveAspectRatio="xMidYMid meet">

<g transform="translate(0.000000,360.000000) scale(0.100000,-0.100000)"
fill="white" stroke="none">
<path d="M818 2722 c-53 -53 -68 -75 -68 -98 0 -25 68 -96 483 -511 334 -334
491 -484 510 -489 27 -6 55 19 518 482 435 435 489 492 489 520 0 25 -13 43
-69 97 -46 44 -77 67 -93 67 -18 0 -121 -98 -423 -400 -220 -220 -404 -400
-410 -400 -5 0 -190 180 -410 400 -343 342 -405 400 -430 400 -22 0 -44 -15
-97 -68z"/>
<path d="M822 1947 c-50 -51 -72 -80 -72 -97 0 -36 964 -1000 1000 -1000 20 0
130 105 513 488 432 432 487 491 487 518 0 25 -13 43 -69 97 -45 44 -77 67
-93 67 -17 0 -124 -101 -428 -405 l-405 -405 -405 405 c-317 317 -411 405
-431 405 -17 0 -45 -21 -97 -73z"/>
</g>
</svg>
