<svg width="64" height="64" viewBox="0 0 64 64" fill="none" xmlns="http://www.w3.org/2000/svg">
<path fill-rule="evenodd" clip-rule="evenodd" d="M30.6024 10.8379C31.385 9.57926 33.2168 9.57926 33.9994 10.8379L41.1438 22.3288L54.2801 25.5727C55.7189 25.928 56.285 27.6702 55.3298 28.8034L46.6091 39.149L47.5832 52.6448C47.6899 54.123 46.208 55.1997 44.8351 54.6414L32.3009 49.5445L19.7667 54.6414C18.3938 55.1997 16.9118 54.123 17.0185 52.6448L17.9927 39.149L9.272 28.8034C8.3168 27.6702 8.88287 25.928 10.3217 25.5727L23.4579 22.3288L30.6024 10.8379ZM39.4454 23.3848L32.3009 11.8939L25.1564 23.3848C24.8811 23.8276 24.4437 24.1454 23.9374 24.2704L10.8012 27.5144L19.5219 37.86C19.858 38.2587 20.0251 38.7729 19.9875 39.293L19.0134 52.7888L31.5475 47.6919C32.0306 47.4954 32.5712 47.4954 33.0543 47.6919L45.5884 52.7888L44.6143 39.293C44.5767 38.7729 44.7438 38.2587 45.0799 37.86L53.8006 27.5144L40.6643 24.2704C40.1581 24.1454 39.7207 23.8276 39.4454 23.3848Z" fill="black"/>
</svg>
