<svg width="64" height="64" viewBox="0 0 64 64" fill="none" xmlns="http://www.w3.org/2000/svg">
<path d="M31.4517 11.3659C31.8429 10.7366 32.7589 10.7366 33.1501 11.3659L40.2946 22.8568C40.4323 23.0782 40.651 23.2371 40.9041 23.2996L54.0403 26.5435C54.7598 26.7212 55.0428 27.5923 54.5652 28.1589L45.8445 38.5045C45.6764 38.7039 45.5929 38.961 45.6117 39.221L46.5858 52.7168C46.6392 53.4559 45.8982 53.9942 45.2117 53.7151L32.6776 48.6182C32.4361 48.52 32.1657 48.52 31.9242 48.6182L19.39 53.7151C18.7036 53.9942 17.9626 53.4559 18.016 52.7168L18.9901 39.221C19.0089 38.961 18.9253 38.7039 18.7573 38.5045L10.0366 28.1589C9.559 27.5923 9.84204 26.7212 10.5615 26.5435L23.6977 23.2996C23.9508 23.2371 24.1695 23.0782 24.3072 22.8568L31.4517 11.3659Z" fill="#FFDF6D"/>
<path fill-rule="evenodd" clip-rule="evenodd" d="M30.6024 10.8379C31.385 9.57926 33.2168 9.57926 33.9994 10.8379L41.1438 22.3288L54.2801 25.5727C55.7189 25.928 56.285 27.6702 55.3298 28.8034L46.6091 39.149L47.5832 52.6448C47.6899 54.123 46.208 55.1997 44.8351 54.6414L32.3009 49.5445L19.7667 54.6414C18.3938 55.1997 16.9118 54.123 17.0185 52.6448L17.9927 39.149L9.272 28.8034C8.3168 27.6702 8.88287 25.928 10.3217 25.5727L23.4579 22.3288L30.6024 10.8379ZM39.4454 23.3848L32.3009 11.8939L25.1564 23.3848C24.8811 23.8276 24.4437 24.1454 23.9374 24.2704L10.8012 27.5144L19.5219 37.86C19.858 38.2587 20.0251 38.7729 19.9875 39.293L19.0134 52.7888L31.5475 47.6919C32.0306 47.4954 32.5712 47.4954 33.0543 47.6919L45.5884 52.7888L44.6143 39.293C44.5767 38.7729 44.7438 38.2587 45.0799 37.86L53.8006 27.5144L40.6643 24.2704C40.1581 24.1454 39.7207 23.8276 39.4454 23.3848Z" fill="black"/>
</svg>
