<?xml version="1.0" standalone="no"?>
<!DOCTYPE svg PUBLIC "-//W3C//DTD SVG 20010904//EN"
 "http://www.w3.org/TR/2001/REC-SVG-20010904/DTD/svg10.dtd">
<svg version="1.0" xmlns="http://www.w3.org/2000/svg"
 width="360.000000pt" height="360.000000pt" viewBox="0 0 360.000000 360.000000"
 preserveAspectRatio="xMidYMid meet">
<g transform="translate(0.000000,360.000000) scale(0.100000,-0.100000)"
fill="white" stroke="none">
<path d="M1337 2262 c-432 -432 -487 -491 -487 -518 0 -25 13 -43 69 -97 45
-44 77 -67 93 -67 17 0 124 101 428 405 l405 405 405 -405 c317 -317 411 -405
431 -405 34 0 169 135 169 170 0 36 -964 1000 -1000 1000 -20 0 -130 -105
-513 -488z"/>
<path d="M1339 1494 c-435 -435 -489 -492 -489 -520 0 -25 13 -43 69 -97 46
-44 77 -67 93 -67 18 0 121 98 423 400 220 220 404 400 410 400 5 0 190 -180
410 -400 343 -342 405 -400 430 -400 41 0 165 124 165 166 0 25 -68 96 -482
511 -335 334 -492 484 -511 489 -27 6 -55 -19 -518 -482z"/>
</g>
</svg>

